<?xml version="1.0" standalone="no"?>
<!DOCTYPE svg PUBLIC "-//W3C//DTD SVG 20010904//EN"
 "http://www.w3.org/TR/2001/REC-SVG-20010904/DTD/svg10.dtd">
<svg version="1.0" xmlns="http://www.w3.org/2000/svg"
 width="97.000000pt" height="83.000000pt" viewBox="0 0 97.000000 83.000000"
 preserveAspectRatio="xMidYMid meet">
<metadata>
Created by potrace 1.10, written by Peter Selinger 2001-2011
</metadata>
<g transform="translate(0.000000,83.000000) scale(0.100000,-0.100000)"
fill="#11a75d" stroke="none">
<path d="M401 764 c-19 -8 -87 -44 -150 -81 -215 -123 -221 -134 -221 -419 0
-185 2 -208 17 -220 10 -7 23 -14 29 -14 7 0 57 26 113 57 l101 57 0 76 0 77
64 11 c35 7 75 12 90 12 l26 0 0 -129 c0 -123 1 -131 22 -145 12 -9 28 -16 35
-16 7 0 67 30 133 67 l119 68 1 117 0 117 57 16 c96 28 113 40 113 81 0 41
-13 48 -106 59 -62 7 -62 7 -78 49 -23 61 -78 120 -138 150 -41 21 -66 26
-122 26 -40 -1 -86 -7 -105 -16z m182 -53 c38 -15 96 -70 118 -113 l19 -38
-32 0 c-18 0 -65 -7 -104 -16 l-71 -17 -41 45 c-23 25 -60 53 -82 63 -46 21
-42 33 19 65 39 21 133 26 174 11z m-221 -132 c22 -11 51 -32 65 -47 l24 -26
-78 -28 c-42 -15 -78 -28 -80 -28 -7 0 -2 101 7 124 12 31 11 31 62 5z m-126
-5 c-3 -9 -6 -46 -6 -84 l0 -68 -64 -36 c-35 -20 -67 -36 -70 -36 -10 0 -7 97
5 127 13 34 44 70 84 94 37 23 59 25 51 3z m484 -104 c0 -16 -3 -30 -7 -30 -5
0 -45 -9 -90 -19 l-82 -19 -6 30 c-4 16 -5 32 -2 35 11 10 104 31 145 32 40 1
42 0 42 -29z m138 21 c10 -6 6 -10 -15 -14 -15 -3 -36 -9 -45 -12 -14 -6 -18
-2 -18 14 0 17 6 21 33 21 17 0 38 -4 45 -9z m-388 -70 c0 -33 -2 -35 -103
-52 -68 -11 -90 -8 -71 11 10 10 150 68 167 69 4 1 7 -12 7 -28z m250 -130 l0
-89 -52 -30 c-29 -16 -70 -40 -90 -52 l-38 -22 0 124 0 125 78 15 c42 9 83 16
90 17 9 1 12 -23 12 -88z m-493 52 c-4 -3 -10 -3 -14 0 -3 4 0 7 7 7 7 0 10
-3 7 -7z m3 -113 l0 -49 -67 -40 -68 -39 -3 75 c-2 42 0 78 2 81 7 7 73 19
109 21 26 1 27 -1 27 -49z"/>
</g>
</svg>
