<svg version="1" xmlns="http://www.w3.org/2000/svg" width="129.333" height="110.667" viewBox="0 0 97.000000 83.000000"><path d="M40.1 6.6c-1.9.8-8.7 4.4-15 8.1C3.6 27 3 28.1 3 56.6c0 18.5.2 20.8 1.7 22 1 .7 2.3 1.4 2.9 1.4.7 0 5.7-2.6 11.3-5.7L29 68.6V53.3l6.4-1.1c3.5-.7 7.5-1.2 9-1.2H47v12.9c0 12.3.1 13.1 2.2 14.5 1.2.9 2.8 1.6 3.5 1.6.7 0 6.7-3 13.3-6.7l11.9-6.8.1-11.7V43.1l5.7-1.6c9.6-2.8 11.3-4 11.3-8.1s-1.3-4.8-10.6-5.9c-6.2-.7-6.2-.7-7.8-4.9-2.3-6.1-7.8-12-13.8-15C58.7 5.5 56.2 5 50.6 5c-4 .1-8.6.7-10.5 1.6zm18.2 5.3c3.8 1.5 9.6 7 11.8 11.3L72 27h-3.2c-1.8 0-6.5.7-10.4 1.6l-7.1 1.7-4.1-4.5c-2.3-2.5-6-5.3-8.2-6.3-4.6-2.1-4.2-3.3 1.9-6.5 3.9-2.1 13.3-2.6 17.4-1.1zM36.2 25.1c2.2 1.1 5.1 3.2 6.5 4.7l2.4 2.6-7.8 2.8c-4.2 1.5-7.8 2.8-8 2.8-.7 0-.2-10.1.7-12.4 1.2-3.1 1.1-3.1 6.2-.5zm-12.6.5c-.3.9-.6 4.6-.6 8.4v6.8l-6.4 3.6c-3.5 2-6.7 3.6-7 3.6-1 0-.7-9.7.5-12.7 1.3-3.4 4.4-7 8.4-9.4 3.7-2.3 5.9-2.5 5.1-.3zM72 36c0 1.6-.3 3-.7 3-.5 0-4.5.9-9 1.9l-8.2 1.9-.6-3c-.4-1.6-.5-3.2-.2-3.5 1.1-1 10.4-3.1 14.5-3.2 4-.1 4.2 0 4.2 2.9zm13.8-2.1c1 .6.6 1-1.5 1.4-1.5.3-3.6.9-4.5 1.2-1.4.6-1.8.2-1.8-1.4 0-1.7.6-2.1 3.3-2.1 1.7 0 3.8.4 4.5.9zm-38.8 7c0 3.3-.2 3.5-10.3 5.2-6.8 1.1-9 .8-7.1-1.1 1-1 15-6.8 16.7-6.9.4-.1.7 1.2.7 2.8zm25 13v8.9l-5.2 3c-2.9 1.6-7 4-9 5.2L54 73.2V48.3l7.8-1.5c4.2-.9 8.3-1.6 9-1.7.9-.1 1.2 2.3 1.2 8.8zm-49.3-5.2c-.4.3-1 .3-1.4 0-.3-.4 0-.7.7-.7s1 .3.7.7zM23 60v4.9l-6.7 4-6.8 3.9-.3-7.5c-.2-4.2 0-7.8.2-8.1.7-.7 7.3-1.9 10.9-2.1 2.6-.1 2.7.1 2.7 4.9z" fill="#11a75d"/></svg>